<?xml version="1.0" encoding="iso-8859-1"?>
<!-- Generator: Adobe Illustrator 18.0.0, SVG Export Plug-In . SVG Version: 6.00 Build 0)  -->
<!DOCTYPE svg PUBLIC "-//W3C//DTD SVG 1.1//EN" "http://www.w3.org/Graphics/SVG/1.1/DTD/svg11.dtd">
<svg version="1.1" id="Capa_1" xmlns="http://www.w3.org/2000/svg" xmlns:xlink="http://www.w3.org/1999/xlink" x="0px" y="-5px"
	 viewBox="0 0 280 200" style="enable-background:new 0 0 250.99 220.99;" xml:space="preserve">
<path d="M285.794,119.675c2.929-2.929,2.929-7.678,0-10.606c-37.877-37.876-88.235-58.736-141.799-58.736
	c-53.564,0-103.923,20.859-141.799,58.736C0.79,110.475,0,112.382,0,114.372c0,1.989,0.79,3.897,2.197,5.303l86.743,86.741
	c0.707,0.707,1.521,1.239,2.39,1.605c-0.28,9.409,2.716,18.966,12.758,27.775c1.423,1.249,3.187,1.862,4.942,1.862
	c2.084,0,4.158-0.864,5.642-2.554c2.731-3.114,2.421-7.852-0.693-10.584c-8.405-7.372-8.988-14.832-6.165-25.053
	c10.313-7.293,22.553-11.29,35.418-11.443c-5.299,15.069-8.987,32.54,8.378,47.772c1.423,1.249,3.186,1.862,4.942,1.862
	c2.084,0,4.158-0.864,5.642-2.554c2.732-3.114,2.421-7.852-0.693-10.584c-10.866-9.531-8.665-19.206-2.921-34.809
	c10.409,2.462,20.02,7.556,28.025,14.955c-1.128,10.476,1.287,21.272,12.525,31.131c1.424,1.249,3.188,1.862,4.943,1.862
	c2.084,0,4.158-0.864,5.641-2.554c2.731-3.114,2.422-7.852-0.691-10.584c-7.236-6.347-8.675-12.757-7.135-20.938L285.794,119.675z
	 M163.604,175.489c3.408-11.358,4.753-23.71-3.505-35.252l5.453-4.576c1.252-1.051,1.912-2.648,1.767-4.275
	c-0.146-1.628-1.078-3.082-2.497-3.894l-36.684-20.988c-1.82-1.041-4.094-0.836-5.697,0.51c-1.604,1.346-2.2,3.55-1.491,5.522
	l14.299,39.771c0.553,1.538,1.823,2.709,3.401,3.135c0.431,0.116,0.868,0.173,1.304,0.173c1.161,0,2.303-0.405,3.214-1.17
	l5.371-4.507c4.113,6.581,3.177,13.738,0.07,23.218c-1.531-0.089-3.066-0.15-4.612-0.15c-10.054,0-19.812,1.903-28.878,5.52
	c4.051-12.169,6.459-25.709-2.542-38.289l5.452-4.575c1.252-1.051,1.912-2.648,1.767-4.276c-0.146-1.628-1.078-3.082-2.497-3.894
	l-36.682-20.988c-1.818-1.04-4.092-0.836-5.697,0.51c-1.604,1.346-2.2,3.55-1.491,5.522l14.299,39.771
	c0.553,1.538,1.823,2.709,3.401,3.135c0.431,0.116,0.868,0.173,1.304,0.173c1.162,0,2.303-0.405,3.214-1.17l5.371-4.507
	c5.273,8.438,2.25,17.817-3.01,31.832c-1.046,2.788-2.133,5.693-3.123,8.679c-0.128,0.105-0.262,0.203-0.39,0.309l-76.283-76.281
	c34.358-31.749,78.733-49.144,125.784-49.144c47.05,0,91.425,17.395,125.784,49.144l-57.742,57.742
	c2.669-10.433,3.056-21.538-4.417-31.98l5.453-4.576c1.252-1.051,1.912-2.648,1.767-4.275c-0.146-1.628-1.078-3.082-2.497-3.894
	l-36.684-20.988c-1.82-1.041-4.094-0.836-5.697,0.51c-1.604,1.346-2.2,3.55-1.491,5.522l14.299,39.771
	c0.553,1.538,1.823,2.709,3.401,3.135c0.431,0.116,0.868,0.173,1.304,0.173c1.161,0,2.303-0.405,3.214-1.17l5.372-4.507
	c5.274,8.438,2.25,17.818-3.01,31.833c-0.814,2.171-1.654,4.414-2.454,6.71C182.485,182.395,173.341,178.005,163.604,175.489z"/>
<g>
</g>
<g>
</g>
<g>
</g>
<g>
</g>
<g>
</g>
<g>
</g>
<g>
</g>
<g>
</g>
<g>
</g>
<g>
</g>
<g>
</g>
<g>
</g>
<g>
</g>
<g>
</g>
<g>
</g>
</svg>
